<svg width="416" height="236" viewBox="0 0 416 236" fill="none" xmlns="http://www.w3.org/2000/svg">
<ellipse cx="239" cy="13.5" rx="3" ry="2.5" fill="#D2E7FF"/>
<circle cx="79" cy="134" r="3" fill="#D2E7FF"/>
<circle cx="351" cy="134" r="3" fill="#D2E7FF"/>
<circle cx="61.5" cy="9.5" r="2.5" fill="#D2E7FF"/>
<circle cx="333.5" cy="9.5" r="2.5" fill="#D2E7FF"/>
<circle cx="6.5" cy="30.5" r="2.5" fill="#D2E7FF"/>
<circle cx="278.5" cy="30.5" r="2.5" fill="#D2E7FF"/>
<ellipse cx="21" cy="136.5" rx="3" ry="2.5" fill="#D2E7FF"/>
<ellipse cx="293" cy="136.5" rx="3" ry="2.5" fill="#D2E7FF"/>
<ellipse cx="1" cy="231.5" rx="3" ry="2.5" fill="#D2E7FF"/>
<ellipse cx="273" cy="231.5" rx="3" ry="2.5" fill="#D2E7FF"/>
<circle cx="205" cy="87" r="3" fill="#D2E7FF"/>
<circle cx="169" cy="114" r="3" fill="#D2E7FF"/>
<circle cx="228" cy="131" r="3" fill="#D2E7FF"/>
<circle cx="36.5" cy="150.5" r="2.5" fill="#D2E7FF"/>
<circle cx="308.5" cy="150.5" r="2.5" fill="#D2E7FF"/>
<ellipse cx="170" cy="146.5" rx="3" ry="2.5" fill="#D2E7FF"/>
<ellipse cx="308.5" cy="197" rx="2.5" ry="3" fill="#D2E7FF"/>
<ellipse cx="56" cy="108.5" rx="3" ry="2.5" fill="#D2E7FF"/>
<ellipse cx="328" cy="108.5" rx="3" ry="2.5" fill="#D2E7FF"/>
<circle cx="178.5" cy="194.5" r="2.5" fill="#D2E7FF"/>
<ellipse cx="253" cy="51.5" rx="3" ry="2.5" fill="#D2E7FF"/>
<circle cx="137" cy="15" r="3" fill="#D2E7FF"/>
<circle cx="409" cy="15" r="3" fill="#D2E7FF"/>
<ellipse cx="42" cy="66.5" rx="3" ry="2.5" fill="#D2E7FF"/>
<ellipse cx="314" cy="66.5" rx="3" ry="2.5" fill="#D2E7FF"/>
<circle cx="152" cy="169" r="3" fill="#D2E7FF"/>
<ellipse cx="137.5" cy="46" rx="2.5" ry="3" fill="#D2E7FF"/>
<ellipse cx="409.5" cy="46" rx="2.5" ry="3" fill="#D2E7FF"/>
<circle cx="149" cy="82" r="5" fill="#D2E7FF"/>
<circle cx="381.5" cy="155.5" r="6.5" fill="#D2E7FF"/>
<circle cx="24" cy="2" r="5" fill="#D2E7FF"/>
<circle cx="296" cy="2" r="5" fill="#D2E7FF"/>
<circle cx="223" cy="200" r="5" fill="#D2E7FF"/>
<ellipse cx="172" cy="46.5" rx="3" ry="3.5" fill="#D2E7FF"/>
<circle cx="74" cy="169" r="3" fill="#D2E7FF"/>
<circle cx="346" cy="169" r="3" fill="#D2E7FF"/>
<circle cx="90" cy="100" r="5" fill="#D2E7FF"/>
<circle cx="346" cy="76" r="5" fill="#D2E7FF"/>
<ellipse cx="97" cy="231.5" rx="3" ry="3.5" fill="#D2E7FF"/>
<ellipse cx="369" cy="231.5" rx="3" ry="3.5" fill="#D2E7FF"/>
<ellipse cx="219.5" cy="35" rx="1.5" ry="2" fill="#D2E7FF"/>
<ellipse cx="385" cy="201.5" rx="2" ry="1.5" fill="#D2E7FF"/>
<ellipse cx="124" cy="97.5" rx="2" ry="1.5" fill="#D2E7FF"/>
<ellipse cx="396" cy="97.5" rx="2" ry="1.5" fill="#D2E7FF"/>
<ellipse cx="240" cy="155.5" rx="2" ry="1.5" fill="#D2E7FF"/>
<ellipse cx="349.5" cy="210" rx="1.5" ry="2" fill="#D2E7FF"/>
<ellipse cx="95.5" cy="152" rx="1.5" ry="2" fill="#D2E7FF"/>
<ellipse cx="367.5" cy="152" rx="1.5" ry="2" fill="#D2E7FF"/>
<circle cx="246.5" cy="104.5" r="1.5" fill="#D2E7FF"/>
<circle cx="9" cy="174" r="2" fill="#D2E7FF"/>
<circle cx="281" cy="174" r="2" fill="#D2E7FF"/>
<ellipse cx="229.5" cy="227" rx="1.5" ry="2" fill="#D2E7FF"/>
<ellipse cx="136" cy="188.5" rx="2" ry="1.5" fill="#D2E7FF"/>
<ellipse cx="408" cy="188.5" rx="2" ry="1.5" fill="#D2E7FF"/>
<circle cx="179.5" cy="15.5" r="1.5" fill="#D2E7FF"/>
<circle cx="35.5" cy="19.5" r="1.5" fill="#D2E7FF"/>
<circle cx="307.5" cy="19.5" r="1.5" fill="#D2E7FF"/>
<ellipse cx="108" cy="67.5" rx="2" ry="1.5" fill="#D2E7FF"/>
<ellipse cx="380" cy="67.5" rx="2" ry="1.5" fill="#D2E7FF"/>
<circle cx="79.5" cy="30.5" r="1.5" fill="#D2E7FF"/>
<circle cx="351.5" cy="30.5" r="1.5" fill="#D2E7FF"/>
<circle cx="209.5" cy="41.5" r="1.5" fill="#D2E7FF"/>
<circle cx="22.5" cy="75.5" r="1.5" fill="#D2E7FF"/>
<circle cx="294.5" cy="75.5" r="1.5" fill="#D2E7FF"/>
<circle cx="174.5" cy="75.5" r="1.5" fill="#D2E7FF"/>
<g filter="url(#filter0_f_1942_83216)">
<ellipse cx="318.5" cy="180" rx="149.5" ry="131" fill="#17002F"/>
</g>
<g filter="url(#filter1_f_1942_83216)">
<ellipse cx="65.5" cy="56" rx="86.5" ry="62" fill="#17002F"/>
</g>
<g filter="url(#filter2_f_1942_83216)">
<circle cx="88" cy="191" r="62" fill="#17002F"/>
</g>
<defs>
<filter id="filter0_f_1942_83216" x="69" y="-51" width="499" height="462" filterUnits="userSpaceOnUse" color-interpolation-filters="sRGB">
<feFlood flood-opacity="0" result="BackgroundImageFix"/>
<feBlend mode="normal" in="SourceGraphic" in2="BackgroundImageFix" result="shape"/>
<feGaussianBlur stdDeviation="50" result="effect1_foregroundBlur_1942_83216"/>
</filter>
<filter id="filter1_f_1942_83216" x="-121" y="-106" width="373" height="324" filterUnits="userSpaceOnUse" color-interpolation-filters="sRGB">
<feFlood flood-opacity="0" result="BackgroundImageFix"/>
<feBlend mode="normal" in="SourceGraphic" in2="BackgroundImageFix" result="shape"/>
<feGaussianBlur stdDeviation="50" result="effect1_foregroundBlur_1942_83216"/>
</filter>
<filter id="filter2_f_1942_83216" x="-74" y="29" width="324" height="324" filterUnits="userSpaceOnUse" color-interpolation-filters="sRGB">
<feFlood flood-opacity="0" result="BackgroundImageFix"/>
<feBlend mode="normal" in="SourceGraphic" in2="BackgroundImageFix" result="shape"/>
<feGaussianBlur stdDeviation="50" result="effect1_foregroundBlur_1942_83216"/>
</filter>
</defs>
</svg>
