<svg width="416" height="236" viewBox="0 0 416 236" fill="none" xmlns="http://www.w3.org/2000/svg">
<path d="M167.388 64.5495C140.86 97.2924 77.9791 106.924 30.5121 107.662C-29.803 108.604 -56.9416 179.619 -21.9023 238.337C6.57004 286.046 -4.10338 320.092 -50.8115 289.118C-111.652 248.773 -114.698 72.2533 35.0752 93.0415C113.081 103.87 117.371 53.0891 134.996 32.3573C155.847 7.83368 195.213 30.2036 167.388 64.5495Z" fill="#85FFF8"/>
<path d="M266.737 318.548C266.737 318.548 266.737 318.548 266.737 318.548C212.873 304.041 146.423 265.188 122.756 211.117C115.459 194.446 110.898 175.064 116.504 157.654C122.462 139.156 138.832 126.57 155.954 119.974C173.076 113.378 191.422 111.595 209.182 107.405C218.8 105.137 228.478 102.047 236.481 95.8779C244.484 89.7086 250.636 79.9608 250.716 69.3632C250.799 58.3837 244.484 48.3985 236.791 41.1935C229.094 33.9885 219.941 28.8548 211.707 22.3758C204.356 16.5919 197.101 7.37745 199.879 -1.9574C203.461 -13.9967 219.065 -14.1997 230.59 -11.7774C316.972 6.37618 403.144 38.1071 470.902 98.5755C485.137 111.279 498.724 125.541 507.009 143.337C515.296 161.132 517.601 183.092 509.246 200.849C501.495 217.32 485.019 230.406 485.384 248.866C485.652 262.419 495.362 273.622 505.794 281.219C516.226 288.813 528.106 294.398 536.921 304.08C545.736 313.762 550.649 329.617 543.732 340.948C537.561 351.057 507.76 383.455 266.737 318.549C266.737 318.549 266.737 318.548 266.737 318.548V318.548Z" fill="#85FFF8"/>
</svg>
