<svg width="32" height="32" viewBox="0 0 32 32" fill="none" xmlns="http://www.w3.org/2000/svg">
<style>
  :root {
    --color: #524FFF;
  }

  @media (prefers-color-scheme: dark) {
    :root {
      --color: #85FFF8;
    }
  }
</style>
<path fill-rule="evenodd" clip-rule="evenodd" d="M20.0027 14.1026C22.8788 15.1148 25.1247 17.2658 25.8007 19.9574C26.3278 22.0739 25.8007 24.363 24.3226 26.3989C22.4549 28.987 19.3496 30.7814 16.4277 30.977C16.2558 31 16.0725 31 15.8892 31C13.7235 31 10.7787 30.1833 8.87661 27.8253C8.14325 26.9165 7.6047 25.7663 7.30681 24.478C6.05781 19.1177 8.80786 10.9509 12.1995 6.14274C14.3537 3.07152 16.7256 1.31161 19.0517 1.04705C20.5184 0.886017 21.7903 1.13908 22.8444 1.79473C24.9299 3.10603 25.5257 5.64812 25.5486 6.94792C25.5945 9.63955 23.4517 12.2852 20.0027 14.1026ZM16.2787 28.688C18.5132 28.5384 20.9996 27.0776 22.4778 25.0531C23.234 24.0064 24.0361 22.373 23.5778 20.5211C22.9132 17.8755 19.659 15.3794 15.3735 15.805C14.7892 15.851 14.2391 15.4369 14.136 14.8503C14.0329 14.2521 14.411 13.677 14.9954 13.539C20.4152 12.1931 23.2913 9.15643 23.2569 6.98243C23.2455 6.08522 22.7871 4.48635 21.6299 3.75018C21.034 3.38209 20.3923 3.30158 19.9111 3.30158C19.6577 3.30158 19.4466 3.32284 19.3289 3.33471L19.3152 3.33608C17.6767 3.52013 15.8089 4.99247 14.0673 7.46554C10.5954 12.3887 8.56721 19.7964 9.54118 23.9604C9.81617 25.1566 10.2974 25.9388 10.6641 26.3759C12.0735 28.1358 14.5027 28.8145 16.2787 28.688Z" fill="var(--color)"/>
</svg>
