<svg width="448" height="56" viewBox="0 0 448 56" fill="none" xmlns="http://www.w3.org/2000/svg">
<path d="M59.5 41.8301L63.5144 38.7833L59.5296 36.0395L58.1135 38.1456L59.5 41.8301Z" fill="#FC6AFF"/>
<path d="M68.3564 24L70.3735 27.4937L62.995 30.1007L60.9995 28.2475L68.3564 24Z" fill="#FF95BB"/>
<path d="M61.6543 38.3542L65.3304 34.7581L59.8104 31.725L56.9996 33.5961L61.6543 38.3542Z" fill="#FFD79C"/>
<path d="M68.4316 36.3491L69.5275 32.2593L61.5021 31.6644L59.9995 34.0897L68.4316 36.3491Z" fill="#FF9485"/>
<path d="M64.1914 27.7915L60.6137 23.4686L56.1501 28.7021L58.8452 30.0586L64.1914 27.7915Z" fill="#85FFF8"/>
<path d="M119.212 45.1743L123.966 41.5659L119.247 38.3165L117.57 40.8108L119.212 45.1743Z" fill="#FC6AFF"/>
<path d="M134.55 19L137.442 24.0098L126.862 27.748L124 25.0907L134.55 19Z" fill="#FF95BB"/>
<path d="M124.229 43.1794L129.148 38.3671L121.761 34.3084L118 36.8122L124.229 43.1794Z" fill="#FFD79C"/>
<path d="M135.895 38.209L137.298 32.971L127.02 32.2091L125.095 35.3153L135.895 38.209Z" fill="#FF9485"/>
<path d="M127.03 24.7925L121.958 18.6641L115.63 26.0834L119.451 28.0064L127.03 24.7925Z" fill="#85FFF8"/>
<path d="M176.808 51.3196L184.012 48.38L179.166 42.6958L176.212 45.2708L176.808 51.3196Z" fill="#FC6AFF"/>
<path d="M201.952 16.5422L204.593 24.1485L189.15 26.4853L185.935 22.1029L201.952 16.5422Z" fill="#FF95BB"/>
<path d="M187.405 48.8997L193.899 42.4055L183.982 37.0975L179 40.4941L187.405 48.8997Z" fill="#FFD79C"/>
<path d="M202.504 41.1047L204.501 33.6509L189.874 32.5666L187.136 36.9869L202.504 41.1047Z" fill="#FF9485"/>
<path d="M190.56 19.5896L184.893 12.7421L177.822 21.0319L182.091 23.1806L190.56 19.5896Z" fill="#85FFF8"/>
<path d="M267.377 15L269.461 22.7773L253.89 23.9916L251 19.3882L267.377 15Z" fill="#FF95BB"/>
<path d="M248.405 53.8997L254.899 47.4055L244.982 42.0975L240 45.4941L248.405 53.8997Z" fill="#FFD79C"/>
<path d="M265.175 46.1008L268.679 39.2258L254.599 35.1214L251 38.8751L265.175 46.1008Z" fill="#FF9485"/>
<path d="M236.446 54.6868L241.253 53.2422L238.491 49.2946L236.436 50.7664L236.446 54.6868Z" fill="#FC6AFF"/>
<path d="M251.56 16.5896L245.893 9.74212L238.822 18.0319L243.091 20.1806L251.56 16.5896Z" fill="#85FFF8"/>
<path d="M308.381 55.5381L312.538 51.3808L306.19 47.9829L303 50.1572L308.381 55.5381Z" fill="#FFD79C"/>
<path d="M325.891 49.5081L328.66 44.7106L318.72 41.2412L316 43.7974L325.891 49.5081Z" fill="#FF9485"/>
<path d="M294 55.2368L297.237 54.8281L295.891 51.9999L294.415 52.7223L294 55.2368Z" fill="#FC6AFF"/>
<path d="M328.781 16L330.153 21.1199L319.902 21.9193L318 18.8888L328.781 16Z" fill="#FF95BB"/>
<path d="M317.766 14.2717L314.348 8.3988L307.979 13.7663L310.93 15.9207L317.766 14.2717Z" fill="#85FFF8"/>
<path d="M364.511 55.6072L367.629 53.8069L364.412 50.7907L362.181 51.5713L364.511 55.6072Z" fill="#FFD79C"/>
<path d="M388.511 54.3037L390.623 52.3195L386.169 49.079L384.42 49.9482L388.511 54.3037Z" fill="#FF9485"/>
<path d="M388.461 17L389.156 19.5933L383.964 19.9983L383 18.4633L388.461 17Z" fill="#FF95BB"/>
<path d="M379.664 12.0999L378.555 8.52365L374.471 10.6183L375.79 12.14L379.664 12.0999Z" fill="#85FFF8"/>
</svg>
