<svg width="80" height="64" viewBox="0 0 80 64" fill="none" xmlns="http://www.w3.org/2000/svg">
<g filter="url(#filter0_ii_1917_14)">
<path d="M73.8313 6.36532C71.8765 4.34733 69.5556 2.74651 67.0011 1.65433C64.4466 0.562149 61.7086 0 58.9435 0C56.1784 0 53.4404 0.562149 50.8859 1.65433C48.3315 2.74651 46.0105 4.34733 44.0558 6.36532L39.999 10.5514L35.9422 6.36532C31.9937 2.29103 26.6384 0.00211185 21.0544 0.00211189C15.4705 0.00211193 10.1152 2.29103 6.1667 6.36532C2.21823 10.4396 4.16039e-08 15.9655 0 21.7275C-4.16039e-08 27.4894 2.21823 33.0153 6.1667 37.0896C6.1667 37.0896 8.60678 39.673 10.2235 41.2757C18.0065 48.9911 30.8406 57.901 36.7885 61.8848C38.7358 63.1891 41.2621 63.1891 43.2094 61.8848C49.1574 57.901 61.9915 48.9911 69.7744 41.2757C71.3912 39.673 73.8313 37.0896 73.8313 37.0896C75.7869 35.0726 77.3383 32.6777 78.3968 30.0418C79.4552 27.4059 80 24.5807 80 21.7275C80 18.8743 79.4552 16.049 78.3968 13.4131C77.3383 10.7772 75.7869 8.38237 73.8313 6.36532Z" fill="#FF95BB"/>
</g>
<path d="M31 26.3159C31 26.8682 31.4477 27.3159 32 27.3159C32.5523 27.3159 33 26.8682 33 26.3159C33 25.6593 32.8707 25.0091 32.6194 24.4025C32.3681 23.7959 31.9998 23.2447 31.5355 22.7804C31.0712 22.3161 30.52 21.9478 29.9134 21.6965C29.3068 21.4452 28.6566 21.3159 28 21.3159C27.3434 21.3159 26.6932 21.4452 26.0866 21.6965C25.48 21.9478 24.9288 22.3161 24.4645 22.7804C24.0002 23.2447 23.6319 23.7959 23.3806 24.4025C23.1293 25.0091 23 25.6593 23 26.3159C23 26.8682 23.4477 27.3159 24 27.3159C24.5523 27.3159 25 26.8682 25 26.3159C25 25.922 25.0776 25.5318 25.2284 25.1679C25.3791 24.8039 25.6001 24.4732 25.8787 24.1946C26.1573 23.916 26.488 23.695 26.8519 23.5443C27.2159 23.3935 27.606 23.3159 28 23.3159C28.394 23.3159 28.7841 23.3935 29.1481 23.5443C29.512 23.695 29.8427 23.916 30.1213 24.1946C30.3999 24.4732 30.6209 24.8039 30.7716 25.1679C30.9224 25.5318 31 25.922 31 26.3159Z" fill="#9F3159"/>
<path d="M55 26.3159C55 26.8682 55.4477 27.3159 56 27.3159C56.5523 27.3159 57 26.8682 57 26.3159C57 25.6593 56.8707 25.0091 56.6194 24.4025C56.3681 23.7959 55.9998 23.2447 55.5355 22.7804C55.0712 22.3161 54.52 21.9478 53.9134 21.6965C53.3068 21.4452 52.6566 21.3159 52 21.3159C51.3434 21.3159 50.6932 21.4452 50.0866 21.6965C49.48 21.9478 48.9288 22.3161 48.4645 22.7804C48.0002 23.2447 47.6319 23.7959 47.3806 24.4025C47.1293 25.0091 47 25.6593 47 26.3159C47 26.8682 47.4477 27.3159 48 27.3159C48.5523 27.3159 49 26.8682 49 26.3159C49 25.922 49.0776 25.5318 49.2284 25.1679C49.3791 24.8039 49.6001 24.4732 49.8787 24.1946C50.1573 23.916 50.488 23.695 50.8519 23.5443C51.2159 23.3935 51.606 23.3159 52 23.3159C52.394 23.3159 52.7841 23.3935 53.1481 23.5443C53.512 23.695 53.8427 23.916 54.1213 24.1946C54.3999 24.4732 54.6209 24.8039 54.7716 25.1679C54.9224 25.5318 55 25.922 55 26.3159Z" fill="#9F3159"/>
<defs>
<filter id="filter0_ii_1917_14" x="-3" y="-3" width="86" height="68.863" filterUnits="userSpaceOnUse" color-interpolation-filters="sRGB">
<feFlood flood-opacity="0" result="BackgroundImageFix"/>
<feBlend mode="normal" in="SourceGraphic" in2="BackgroundImageFix" result="shape"/>
<feColorMatrix in="SourceAlpha" type="matrix" values="0 0 0 0 0 0 0 0 0 0 0 0 0 0 0 0 0 0 127 0" result="hardAlpha"/>
<feOffset dx="-3" dy="-3"/>
<feGaussianBlur stdDeviation="4"/>
<feComposite in2="hardAlpha" operator="arithmetic" k2="-1" k3="1"/>
<feColorMatrix type="matrix" values="0 0 0 0 0.833333 0 0 0 0 0.305556 0 0 0 0 0.494759 0 0 0 1 0"/>
<feBlend mode="normal" in2="shape" result="effect1_innerShadow_1917_14"/>
<feColorMatrix in="SourceAlpha" type="matrix" values="0 0 0 0 0 0 0 0 0 0 0 0 0 0 0 0 0 0 127 0" result="hardAlpha"/>
<feOffset dx="3" dy="3"/>
<feGaussianBlur stdDeviation="4"/>
<feComposite in2="hardAlpha" operator="arithmetic" k2="-1" k3="1"/>
<feColorMatrix type="matrix" values="0 0 0 0 1 0 0 0 0 0.7875 0 0 0 0 0.863679 0 0 0 1 0"/>
<feBlend mode="normal" in2="effect1_innerShadow_1917_14" result="effect2_innerShadow_1917_14"/>
</filter>
</defs>
</svg>
