<svg width="25" height="16" viewBox="0 0 25 16" fill="none" xmlns="http://www.w3.org/2000/svg">
<path d="M22.25 11.032V0.0319824L6 5.70659L4.5 8L6 10.0862L22.25 11.032Z" fill="#FFCA7B"/>
<path fill-rule="evenodd" clip-rule="evenodd" d="M1.14776 7.03763C0.6435 7.08884 0.25 7.5147 0.25 8.03247C0.25 8.58476 0.697715 9.03247 1.25 9.03247C1.82941 9.03247 2.39837 9.10112 2.92223 9.23131C3.44718 9.36178 3.90369 9.54823 4.27104 9.76864C4.63985 9.98993 4.89224 10.2292 5.04646 10.4525C5.19712 10.6708 5.25 10.8659 5.25 11.0325C5.25 11.1991 5.19712 11.3941 5.04645 11.6124C4.89224 11.8358 4.63985 12.075 4.27104 12.2963C3.90369 12.5167 3.44718 12.7032 2.92223 12.8336C2.39837 12.9638 1.82941 13.0325 1.25 13.0325C0.697715 13.0325 0.25 13.4802 0.25 14.0325C0.25 14.5848 0.697715 15.0325 1.25 15.0325C1.98381 15.0325 2.71521 14.9459 3.40461 14.7746C4.09291 14.6035 4.73879 14.348 5.30003 14.0113C5.8598 13.6754 6.34401 13.2532 6.69234 12.7486C7.04422 12.2389 7.25 11.6538 7.25 11.0325C7.25 10.4111 7.04422 9.826 6.69234 9.3163C6.34401 8.81173 5.8598 8.38952 5.30003 8.05366C5.2882 8.04656 5.27633 8.0395 5.26443 8.03247C5.27633 8.02544 5.2882 8.01838 5.30003 8.01128C5.8598 7.67542 6.34401 7.25321 6.69234 6.74864C7.04422 6.23894 7.25 5.65381 7.25 5.03247C7.25 4.41113 7.04422 3.826 6.69234 3.3163C6.34401 2.81173 5.8598 2.38952 5.30003 2.05366C4.73879 1.71691 4.09291 1.46142 3.40461 1.29035C2.71521 1.11902 1.98381 1.03247 1.25 1.03247C0.697715 1.03247 0.25 1.48019 0.25 2.03247C0.25 2.58476 0.697715 3.03247 1.25 3.03247C1.82941 3.03247 2.39837 3.10112 2.92223 3.23131C3.44718 3.36178 3.90369 3.54823 4.27104 3.76864C4.63985 3.98993 4.89224 4.22916 5.04646 4.45254C5.19712 4.67079 5.25 4.86588 5.25 5.03247C5.25 5.19906 5.19712 5.39415 5.04645 5.6124C4.89224 5.83578 4.63985 6.07501 4.27104 6.2963C3.90369 6.51671 3.44718 6.70317 2.92223 6.83363C2.39837 6.96382 1.82941 7.03247 1.25 7.03247C1.21548 7.03247 1.18137 7.03422 1.14776 7.03763Z" fill="#9F3159"/>
<path d="M22.25 11.0325C23.3546 11.0325 24.25 8.57004 24.25 5.53247C24.25 2.4949 23.3546 0.0324707 22.25 0.0324707C21.1454 0.0324707 20.25 2.4949 20.25 5.53247C20.25 8.57004 21.1454 11.0325 22.25 11.0325Z" fill="#C05100"/>
<path d="M16.2689 5.96031C16.1942 7.88188 16.3274 9.09587 16.8503 10.7177L14.7267 10.5941C14.3107 9.07446 14.198 7.74593 14.2705 5.8826C14.3196 4.61852 14.4317 3.66879 14.6783 2.67608L17.0143 1.86035C16.5061 3.30908 16.3336 4.29723 16.2689 5.96031Z" fill="#C05100"/>
<path d="M10.2689 6.96031C10.2165 8.30932 10.2665 9.3096 10.4818 10.3471L8.42588 10.2274C8.25894 9.20825 8.22025 8.17383 8.27046 6.8826C8.30022 6.11721 8.35304 5.46707 8.44484 4.85286L10.6371 4.0873C10.4111 4.97319 10.3139 5.80346 10.2689 6.96031Z" fill="#C05100"/>
</svg>
